<?xml version="1.0" standalone="no"?>
<!DOCTYPE svg PUBLIC "-//W3C//DTD SVG 20010904//EN"
 "http://www.w3.org/TR/2001/REC-SVG-20010904/DTD/svg10.dtd">
<svg version="1.0" xmlns="http://www.w3.org/2000/svg"
 width="1100.000000pt" height="1100.000000pt" viewBox="0 0 1100.000000 1100.000000"
 preserveAspectRatio="xMidYMid meet">
<metadata>
Created by potrace 1.14, written by Peter Selinger 2001-2017
</metadata>
<g transform="translate(0.000000,1100.000000) scale(0.100000,-0.100000)"
fill="#000000" stroke="none">
<path d="M2479 10336 c-2 -2 -38 -6 -79 -9 -41 -4 -84 -8 -95 -11 -11 -2 -42
-7 -70 -11 -64 -10 -69 -11 -75 -14 -3 -2 -14 -4 -25 -5 -11 -1 -36 -6 -55 -9
-19 -4 -38 -7 -42 -7 -4 -1 -26 -7 -48 -15 -22 -8 -42 -14 -45 -14 -18 -1 -62
-15 -72 -24 -7 -5 -13 -7 -13 -4 0 7 -145 -44 -180 -63 -14 -7 -27 -13 -30
-12 -3 0 -27 -9 -55 -21 -27 -12 -52 -20 -54 -18 -2 1 -7 -1 -10 -6 -8 -10
-95 -53 -109 -53 -6 0 -12 -3 -14 -8 -4 -9 -147 -92 -159 -92 -5 0 -9 -3 -9
-8 0 -4 -17 -16 -37 -27 -20 -11 -41 -24 -48 -30 -6 -5 -26 -21 -45 -34 -132
-91 -336 -278 -450 -411 -36 -41 -67 -77 -70 -80 -3 -3 -31 -39 -61 -80 -84
-113 -142 -203 -212 -335 -12 -22 -26 -43 -30 -46 -5 -3 -8 -9 -8 -13 0 -3
-12 -34 -28 -68 -16 -35 -39 -88 -51 -118 -12 -30 -28 -68 -35 -85 -7 -16 -18
-48 -25 -70 -6 -22 -14 -47 -17 -55 -3 -8 -7 -19 -9 -25 -20 -72 -36 -134 -40
-150 -2 -11 -6 -30 -9 -42 -3 -13 -7 -33 -10 -45 -3 -13 -7 -36 -10 -53 -2
-16 -6 -41 -9 -55 -23 -121 -30 -221 -31 -425 0 -256 7 -328 56 -575 7 -30 12
-59 13 -65 1 -5 5 -16 9 -22 5 -7 5 -17 2 -23 -3 -5 -2 -10 4 -10 5 0 8 -8 7
-17 -2 -10 1 -25 5 -33 4 -8 24 -64 44 -124 39 -118 105 -279 118 -284 4 -2 5
-8 1 -13 -3 -5 0 -9 5 -9 6 0 10 -3 9 -7 -4 -15 160 -305 182 -323 3 -3 16
-22 29 -42 12 -21 26 -38 29 -38 4 0 18 -18 32 -40 13 -22 28 -40 32 -40 4 0
8 -6 8 -14 0 -8 4 -16 9 -18 5 -1 25 -23 46 -48 44 -54 122 -134 202 -210 75
-72 258 -220 271 -220 6 0 12 -4 14 -9 3 -10 128 -92 203 -134 71 -40 333
-166 358 -173 4 -1 9 -3 12 -4 3 -1 8 -3 13 -5 4 -1 14 -5 22 -8 21 -9 201
-67 220 -71 8 -2 22 -6 30 -9 8 -4 29 -8 45 -11 17 -2 30 -5 30 -6 0 -2 34
-10 67 -15 15 -2 53 -9 85 -14 32 -6 74 -13 93 -16 19 -2 55 -7 80 -11 25 -4
495 -8 1045 -9 l1000 -3 85 115 c47 63 90 120 96 127 5 6 35 45 64 86 30 41
57 77 60 80 3 3 25 32 49 65 25 33 52 66 60 73 8 6 11 12 6 12 -5 0 1 9 13 20
12 12 22 24 22 28 0 4 14 22 30 41 17 18 30 36 30 40 0 3 13 20 28 37 15 18
34 42 42 55 8 12 23 29 33 38 9 8 17 19 17 24 0 7 56 84 71 97 3 3 32 41 64
85 32 44 61 82 65 85 3 3 16 22 28 42 l23 36 -4 869 c-3 477 -8 886 -11 908
-8 45 -25 150 -30 180 -2 11 -6 39 -10 62 -4 24 -8 45 -7 48 0 2 -7 24 -15 47
-8 24 -17 58 -20 77 -3 19 -11 46 -16 60 -6 14 -13 35 -15 46 -1 11 -7 29 -12
40 -5 11 -23 58 -41 105 -30 80 -139 309 -178 375 -51 87 -183 279 -203 295
-3 3 -10 12 -15 21 -24 43 -239 271 -330 349 -73 64 -217 173 -299 226 -100
66 -99 65 -209 123 -43 23 -83 44 -90 48 -6 4 -17 8 -25 10 -8 1 -18 8 -22 15
-5 7 -9 9 -9 5 0 -5 -12 -1 -27 7 -56 30 -303 119 -303 109 0 -3 -6 -1 -12 5
-7 5 -26 13 -43 16 -58 12 -70 15 -130 30 -86 20 -165 35 -202 38 -18 1 -33 5
-33 8 0 6 -34 8 -311 15 -119 3 -218 3 -220 1z"/>
<path d="M8159 10336 c-2 -2 -38 -6 -79 -9 -41 -4 -84 -8 -95 -11 -11 -2 -42
-7 -68 -10 -27 -4 -59 -9 -70 -12 -12 -2 -35 -7 -52 -10 -44 -9 -60 -12 -60
-14 0 -1 -11 -4 -25 -7 -14 -2 -29 -6 -35 -7 -112 -28 -259 -77 -266 -88 -3
-5 -8 -9 -10 -7 -3 2 -39 -7 -59 -15 -3 -2 -25 -11 -50 -21 -25 -11 -47 -18
-49 -16 -2 1 -7 -2 -10 -7 -6 -10 -78 -43 -85 -39 -2 1 -12 -5 -22 -14 -11 -8
-38 -24 -61 -35 -24 -10 -43 -22 -43 -26 0 -5 -5 -8 -11 -8 -6 0 -50 -26 -97
-57 -48 -32 -91 -60 -96 -62 -5 -2 -16 -9 -25 -17 -9 -7 -52 -41 -96 -75 -124
-98 -345 -308 -345 -329 0 -6 -3 -10 -7 -10 -6 0 -78 -84 -115 -135 -4 -5 -18
-23 -32 -40 -19 -25 -60 -87 -163 -250 -25 -39 -133 -262 -133 -273 0 -7 -5
-12 -10 -12 -6 0 -9 -3 -8 -7 3 -8 -10 -43 -37 -108 -7 -16 -18 -48 -25 -70
-6 -22 -14 -47 -17 -55 -3 -8 -7 -19 -8 -25 -2 -5 -10 -35 -19 -66 -9 -31 -19
-66 -21 -78 -2 -13 -6 -30 -9 -39 -3 -9 -8 -34 -12 -56 -3 -21 -8 -47 -10 -57
-2 -11 -6 -29 -9 -41 -2 -11 -7 -46 -10 -77 -3 -31 -7 -67 -10 -81 -4 -21 -18
-294 -17 -325 1 -8 1 -239 1 -315 0 -8 0 -69 0 -135 0 -66 0 -127 0 -135 0 -8
0 -58 0 -110 0 -52 0 -102 0 -110 0 -8 0 -67 0 -130 0 -63 0 -122 0 -130 0 -8
0 -58 0 -110 0 -52 0 -102 0 -110 0 -8 0 -67 0 -130 1 -142 1 -137 0 -235 -1
-44 -1 -84 0 -90 0 -14 0 -107 0 -125 0 -8 0 -58 0 -110 0 -52 0 -102 0 -110
0 -8 0 -62 0 -120 1 -58 2 -136 2 -175 0 -38 1 -85 2 -102 2 -18 1 -33 -3 -33
-3 0 -3 -24 0 -52 l5 -53 1410 0 c1278 0 1516 3 1595 21 14 3 41 7 60 10 65 8
95 13 120 19 29 7 69 15 88 17 6 1 12 4 12 7 0 3 10 7 23 7 21 2 62 11 62 14
0 1 7 3 15 5 52 11 259 86 346 126 24 10 48 19 53 19 6 0 11 5 11 10 0 6 6 10
14 10 7 0 51 21 97 47 46 25 94 51 106 57 13 6 23 14 23 19 0 4 5 7 10 7 10 0
88 48 100 60 3 3 37 28 75 55 82 58 90 65 204 164 62 54 158 151 224 226 85
96 97 110 97 117 0 4 8 15 18 25 27 27 72 90 72 101 0 6 4 12 8 14 9 3 92 125
92 134 0 3 16 29 35 59 19 30 32 55 29 55 -4 0 -2 6 4 13 11 13 69 126 72 139
0 4 14 36 30 70 47 105 110 297 136 413 19 84 35 166 40 200 3 22 7 51 10 65
26 146 26 574 -2 724 -2 15 -6 47 -8 71 -2 24 -6 47 -10 53 -3 5 -8 27 -11 48
-4 22 -11 55 -16 74 -6 19 -12 47 -15 63 -16 88 -110 340 -181 487 -45 91
-158 290 -171 300 -4 3 -13 17 -21 32 -8 15 -22 36 -31 45 -8 10 -30 39 -48
65 -18 25 -38 52 -44 60 -7 7 -38 42 -68 78 -88 103 -227 238 -332 323 -26 21
-53 43 -61 50 -7 7 -20 17 -28 22 -8 6 -67 44 -130 86 -63 42 -141 90 -174
108 -33 18 -66 38 -72 43 -7 6 -13 7 -13 4 0 -4 -13 2 -30 14 -16 12 -30 19
-30 16 0 -4 -23 5 -51 19 -62 32 -279 114 -322 122 -18 3 -36 9 -42 13 -12 8
-127 35 -138 32 -4 -1 -16 2 -25 7 -9 5 -42 12 -72 16 -30 4 -58 9 -61 11 -4
2 -33 6 -65 9 -33 3 -70 8 -84 11 -29 7 -455 16 -461 10z"/>
<path d="M3217 4654 c-1 -1 -37 -5 -79 -8 -63 -5 -231 -34 -300 -51 -10 -3
-28 -8 -40 -11 -32 -7 -41 -10 -58 -17 -8 -3 -44 -16 -80 -27 -73 -24 -99 -35
-220 -93 -47 -23 -86 -45 -88 -49 -2 -4 -8 -8 -13 -8 -13 0 -183 -111 -187
-122 -2 -4 -10 -8 -17 -8 -7 0 -15 -3 -17 -8 -1 -4 -23 -23 -48 -42 -49 -38
-256 -242 -280 -276 -8 -12 -40 -55 -70 -95 -78 -105 -104 -147 -169 -273 -52
-100 -112 -240 -117 -274 -1 -8 -6 -21 -10 -30 -4 -9 -8 -21 -9 -27 -2 -5 -12
-46 -23 -90 -11 -44 -25 -109 -31 -145 -6 -36 -14 -78 -17 -95 -10 -51 -12
-386 -3 -460 10 -81 17 -129 24 -159 3 -12 7 -33 10 -48 11 -58 16 -78 37
-144 12 -38 22 -74 24 -79 9 -49 112 -275 158 -350 17 -27 37 -62 45 -77 8
-15 23 -37 33 -48 10 -11 15 -20 11 -20 -4 0 -3 -4 3 -8 6 -4 24 -25 40 -47
70 -97 174 -210 286 -311 92 -82 327 -244 355 -244 6 0 13 -4 15 -8 9 -21 275
-133 388 -162 25 -7 52 -15 60 -18 20 -7 26 -8 95 -21 33 -6 71 -13 85 -16
139 -30 500 -26 660 5 30 6 66 13 80 16 14 3 33 7 42 10 14 4 28 7 73 17 6 2
16 6 23 10 6 5 12 6 12 3 0 -2 30 7 68 21 37 13 72 26 77 27 22 6 115 49 200
93 296 151 550 380 745 671 33 49 60 94 60 100 0 5 7 15 15 22 8 7 12 16 9 21
-3 5 0 9 5 9 6 0 11 6 11 14 0 8 7 22 16 30 8 9 13 16 10 16 -3 0 8 27 25 59
16 33 29 67 29 75 0 8 4 17 9 20 6 4 44 106 46 126 0 3 4 11 8 18 5 6 6 16 2
21 -3 5 -1 12 3 15 9 5 38 125 34 139 -1 4 1 7 5 7 5 0 8 10 9 23 0 12 4 45 8
72 4 28 11 77 15 110 5 33 8 542 7 1130 l-1 1070 -1048 0 c-576 1 -1049 0
-1050 -1z"/>
<path d="M6656 4635 c-8 -12 -22 -30 -31 -39 -9 -9 -13 -16 -8 -16 4 0 3 -4
-2 -8 -9 -6 -76 -95 -238 -316 -12 -17 -43 -58 -69 -93 -27 -34 -48 -65 -48
-69 0 -4 -10 -15 -22 -25 -11 -11 -17 -19 -13 -19 5 0 0 -9 -11 -19 -10 -10
-38 -45 -61 -78 -50 -70 -149 -204 -160 -218 -5 -5 -20 -26 -33 -45 -13 -19
-28 -39 -33 -45 -9 -11 -103 -138 -130 -176 -9 -13 -41 -57 -70 -97 l-54 -74
3 -396 c1 -218 5 -419 8 -446 8 -71 16 -125 28 -181 6 -27 12 -59 13 -70 1
-11 7 -33 14 -48 6 -16 9 -33 5 -38 -3 -5 0 -9 7 -9 7 0 10 -3 6 -6 -17 -18
130 -364 204 -479 55 -86 93 -140 101 -143 4 -2 8 -8 8 -14 0 -6 24 -38 53
-71 28 -34 61 -72 72 -85 43 -52 136 -138 221 -207 97 -79 108 -86 132 -98 12
-5 22 -14 22 -19 0 -4 4 -8 10 -8 5 0 26 -12 47 -26 40 -27 243 -129 303 -152
58 -22 211 -72 234 -77 11 -2 22 -4 24 -6 3 -2 21 -6 122 -26 38 -8 55 -11 55
-13 0 -12 416 -19 520 -7 171 18 451 87 494 121 8 6 15 10 15 8 3 -10 281 122
304 145 7 7 17 13 22 13 5 0 15 6 22 13 7 6 25 18 39 25 15 8 38 25 52 38 14
13 29 24 32 24 33 0 337 305 405 405 8 13 37 56 65 96 27 41 56 85 64 99 46
84 127 255 121 255 -2 0 3 11 10 25 8 14 13 29 12 34 -2 4 1 13 6 20 8 9 21
50 23 73 1 5 5 15 10 24 4 9 10 27 13 40 75 336 83 454 52 805 -1 17 -6 36
-10 42 -4 7 -5 12 -3 12 5 0 -8 69 -27 145 -2 6 -6 24 -10 40 -4 17 -10 37
-13 45 -3 8 -8 24 -10 35 -1 11 -7 29 -12 40 -10 22 -24 57 -25 65 -7 34 -126
283 -138 288 -5 2 -8 8 -8 14 0 6 -11 26 -26 45 -14 18 -23 33 -20 33 6 0
-110 158 -157 213 -60 71 -250 257 -263 257 -3 0 -12 7 -20 15 -25 25 -141
105 -152 105 -5 0 -12 7 -16 15 -3 8 -10 15 -15 15 -5 0 -48 22 -95 50 -47 27
-86 47 -86 44 0 -2 -10 2 -22 10 -35 22 -288 120 -288 111 0 -3 -12 0 -27 6
-16 6 -35 12 -43 14 -69 15 -173 35 -207 40 -23 3 -57 8 -75 11 -18 3 -297 7
-620 8 l-588 3 -14 -22z"/>
</g>
</svg>
